<svg width="580" height="400" xmlns="http://www.w3.org/2000/svg">
 <!-- Created with Method Draw - http://github.com/duopixel/Method-Draw/ -->

 <g>
  <title>Layer 1</title>
  <path d="m117.595757,226.150085c-3.831017,-1.769928 1.166924,-5.308868 3.058617,-6.874069c1.275627,-1.205811 -7.304214,0.16954 -3.681961,-4.015549c3.973328,-3.419052 2.473015,-9.203018 -1.500343,-11.89119c-5.466156,-3.782333 -12.479927,-7.020142 -14.499077,-14.083099c-2.042473,-4.399338 2.800476,-9.032623 -0.31456,-13.004761c-2.506325,-5.157883 0.421829,-10.536484 2.242386,-15.315063c0.83786,-6.609818 -4.292099,-11.835541 -7.112976,-17.266281c-3.49202,-5.188049 -5.505714,-11.23558 -5.794174,-17.53656c-0.761017,-2.688782 0.081184,-6.865654 3.113892,-3.240166c6.350624,5.211525 13.325668,10.157112 17.771011,17.291374c0.84079,2.576462 4.210831,10.044006 4.397827,3.281433c0.088409,-9.295303 2.858612,-19.432297 9.958694,-25.661087c4.826981,-4.508377 7.431763,3.385475 7.656448,7.396889c1.256775,7.893806 -0.826263,15.720467 -3.148376,23.177101c-0.852371,3.465088 -3.071693,12.960938 3.25853,9.458847c14.581589,-5.768829 32.247223,0.290359 41.747574,12.683258c4.364151,6.000488 6.277603,13.709595 6.234299,21.11171c-2.248489,4.348877 6.104858,-0.08139 3.076904,4.93634c-1.779755,5.557449 -6.815552,8.572693 -10.341843,12.768112c-3.587555,3.360992 -0.92485,10.549179 -6.860779,11.607208c-8.659607,2.73587 -17.750809,3.933472 -26.764328,4.631714c-5.045059,1.058289 -7.493362,-4.852341 -2.657761,-7.309464c2.318558,-3.661743 8.95015,-3.917526 10.92038,-4.498291c-4.708145,0.472321 -10.515976,-1.497208 -14.483261,1.491135c-2.404846,3.997437 -4.328339,9.258331 -9.366936,10.398849c-2.264282,0.644531 -4.5923,1.161499 -6.910194,0.461578l0,0l0.000008,0.000031z" fill="green" id="svg_1"/>
  <path d="m257.05188,222.219116c-4.110535,-1.512909 1.254425,-4.536743 3.286865,-5.87471c1.369354,-1.030121 -7.845673,0.144867 -3.953003,-3.431198c4.267578,-2.92218 2.655182,-7.864899 -1.610107,-10.162018c-5.871597,-3.232117 -13.399811,-5.99884 -15.569427,-12.03421c-2.192108,-3.759354 3.007019,-7.718842 -0.336151,-11.113358c-2.693298,-4.407974 0.454437,-9.004364 2.409271,-13.08696c0.896545,-5.648361 -4.61084,-10.114471 -7.639069,-14.754776c-3.748077,-4.433945 -5.911621,-9.60144 -6.22229,-14.985962c-0.816162,-2.297989 0.086548,-5.86734 3.346191,-2.768921c6.820374,4.453552 14.305847,8.679825 19.076813,14.776062c0.90271,2.201675 4.520966,8.583496 4.723297,2.80455c0.093384,-7.943359 3.069641,-16.606232 10.692474,-21.928741c5.182678,-3.852997 7.977692,2.893036 8.22049,6.321091c1.347839,6.745178 -0.887146,13.433899 -3.380249,19.805466c-0.91507,2.961273 -3.296295,11.07547 3.498535,8.08342c15.657898,-4.929581 34.624512,0.248154 44.820801,10.83812c4.688507,5.128235 6.742889,11.715652 6.69632,18.041016c-2.415527,3.716812 6.552002,-0.069168 3.305481,4.218079c-1.914398,4.749283 -7.321411,7.326111 -11.106842,10.910751c-3.850983,2.872696 -0.996094,9.014801 -7.363647,9.919586c-9.298492,2.337509 -19.060028,3.360886 -28.73819,3.957336c-5.415375,0.90506 -8.043488,-4.145935 -2.854492,-6.245804c2.490326,-3.128967 9.609741,-3.34819 11.723328,-3.844009c-5.055176,0.40329 -11.290649,-1.279449 -15.54892,1.273941c-2.577148,3.415878 -4.647125,7.911789 -10.057037,8.886826c-2.431152,0.550323 -4.93045,0.992111 -7.420441,0.39444l0,0l0,-0.000015z" fill="red" id="svg_2"/>
  <path d="m401.493347,221.175705c-5.039337,-1.239044 1.536987,-3.716248 4.02417,-4.811874c1.678589,-0.844177 -9.605011,0.118637 -4.844299,-2.811066c5.229584,-2.393661 3.253571,-6.442383 -1.97229,-8.323807c-7.19165,-2.647781 -16.419281,-4.914246 -19.078094,-9.857712c-2.685455,-3.080093 3.684906,-6.323151 -0.411957,-9.103882c-3.295746,-3.610657 0.556915,-7.375641 2.952515,-10.720108c1.098572,-4.62677 -5.649445,-8.285202 -9.356873,-12.086365c-4.596954,-3.632278 -7.248138,-7.86499 -7.632721,-12.275482c-0.995087,-1.88266 0.109924,-4.806442 4.101227,-2.268219c8.360443,3.648102 17.534607,7.109909 23.382568,12.103485c1.106201,1.803772 5.539886,7.031143 5.784027,2.297241c0.118164,-6.506592 3.761078,-13.602798 13.103851,-17.962784c6.355774,-3.156219 9.781281,2.369843 10.075012,5.178192c1.655731,5.525146 -1.087219,11.004211 -4.1427,16.22345c-1.12149,2.425522 -4.039703,9.072449 4.287659,6.621368c19.188904,-4.038025 42.430786,0.203262 54.927551,8.877899c5.748352,4.200943 8.262329,9.596832 8.205017,14.778381c-2.960205,3.044693 8.034851,-0.05661 4.051392,3.455353c-2.346191,3.890427 -8.972412,6.001266 -13.606812,8.937531c-4.722534,2.353226 -1.220581,7.38475 -9.029358,8.125641c-11.388336,1.914917 -23.356201,2.753311 -35.21579,3.241592c-6.638824,0.741302 -9.858429,-3.396179 -3.498871,-5.116287c3.052521,-2.562927 11.776581,-2.742691 14.370392,-3.148849c-6.194916,0.330673 -13.836334,-1.048019 -19.05896,1.043869c-3.1586,2.798157 -5.69162,6.480423 -12.321136,7.279358c-2.980774,0.450821 -6.044098,0.812698 -9.09552,0.323074l0,0z" fill="blue" id="svg_3"/>
 </g>
</svg>